<svg xmlns="http://www.w3.org/2000/svg" viewBox="0 0 500 500"><g id="freepik--Floor--inject-5"><path id="freepik--floor--inject-5" d="M90.19,426.19c89.93,43.28,235.75,43.28,325.69,0s89.93-113.44,0-156.72-235.76-43.28-325.69,0S.25,382.91,90.19,426.19Z" style="fill:#f5f5f5"></path></g><g id="freepik--Shadow--inject-5"><path d="M442.36,382c-21.71,10.26-56.85,10.14-78.49-.27s-21.58-27.15.13-37.41,56.85-10.13,78.49.27S464.07,371.72,442.36,382Z" style="fill:#e0e0e0"></path></g><g id="freepik--Clouds--inject-5"><g id="freepik--clouds--inject-5"><path d="M320.51,65.56l6.81,3.93c0-.3-.06-.6-.06-.9v-2c0-3.51,2.47-4.94,5.51-3.18a10.65,10.65,0,0,1,3.28,3.15c.5-4.41,4-6.06,8.17-3.63,4.55,2.63,8.24,9,8.24,14.27v3a7.88,7.88,0,0,1-.69,3.42l5.65,3.26a6.77,6.77,0,0,1,3.06,5.3c0,1.94-1.37,2.73-3.06,1.76L320.51,72.61a6.74,6.74,0,0,1-3.06-5.29C317.45,65.38,318.82,64.59,320.51,65.56Z" style="fill:#ebebeb"></path><path d="M291.35,85.41l5.14,3c0-.23,0-.46,0-.68V86.21c0-2.65,1.86-3.73,4.16-2.4a8,8,0,0,1,2.47,2.38c.38-3.33,3-4.57,6.17-2.74a13.72,13.72,0,0,1,6.22,10.77v2.23a5.8,5.8,0,0,1-.53,2.58l4.27,2.47a5.07,5.07,0,0,1,2.31,4c0,1.47-1,2.07-2.31,1.33L291.35,90.73a5.09,5.09,0,0,1-2.3-4C289.05,85.27,290.08,84.67,291.35,85.41Z" style="fill:#ebebeb"></path></g></g><g id="freepik--Plants--inject-5"><g id="freepik--plants--inject-5"><path d="M108.6,338.2l6.62-3.78s3.18-17.52.81-32.58c-3.35-21.18-17.76-28.48-23-26.38s-6.47,8.38,3,20.62C101.6,303.29,108.77,318.55,108.6,338.2Z" style="fill:#3A98B9"></path><g style="opacity:0.1"><path d="M108.6,338.2l6.62-3.78s3.18-17.52.81-32.58c-3.35-21.18-17.76-28.48-23-26.38s-6.47,8.38,3,20.62C101.6,303.29,108.77,318.55,108.6,338.2Z"></path></g><path d="M111,329.79h-.07a.47.47,0,0,1-.4-.53c2.74-19.83-5.23-41.54-14.19-50.3a.47.47,0,1,1,.66-.67c9.12,8.91,17.25,31,14.47,51.1A.48.48,0,0,1,111,329.79Z" style="fill:#fff"></path><path d="M90.21,348.83c-1,.6-3.21-.72-4-1.27a10,10,0,0,1-3.32-3.82,9.3,9.3,0,0,1-.83-5.62,20.32,20.32,0,0,1,.71-3c.28-1,.55-1.94.83-2.91a7.35,7.35,0,0,0,.43-2.93c-.26-2-2-3.37-3.62-4.57-1.77-1.33-3.62-3.08-3.61-5.47a8.46,8.46,0,0,1,2.11-5c1.14-1.44,2.5-2.72,3.53-4.25a5.89,5.89,0,0,0,1.2-3.72,6.11,6.11,0,0,0-.8-2.32,32.87,32.87,0,0,1-2.55-4.65c-.58-1.67-.49-3.75.81-4.95a5.46,5.46,0,0,1,4.11-1A9.3,9.3,0,0,1,89,294.67c3.8,2.11,6,6.61,10,8.23a39.76,39.76,0,0,0,4.87,1.19,6,6,0,0,1,4,2.76c1.48,2.95-1.26,6.59-.22,9.72.92,2.78,3.61,3.84,5.13,6.34a5.9,5.9,0,0,1,.7,3.63,17.24,17.24,0,0,1-1.53,6.13,42.74,42.74,0,0,1-3.36,5.53C108.53,338.26,90.37,348.73,90.21,348.83Z" style="fill:#3A98B9"></path><path d="M101,343.09h0a.47.47,0,0,1-.46-.49c.78-18.76-8.06-39.47-14.49-45.49a.47.47,0,1,1,.65-.69c6.56,6.14,15.58,27.19,14.79,46.22A.47.47,0,0,1,101,343.09Z" style="fill:#fff"></path><path d="M98.15,320.93l-.14,0a62.91,62.91,0,0,0-13.61-2.2.47.47,0,0,1-.45-.49.45.45,0,0,1,.49-.45A64.07,64.07,0,0,1,98.29,320a.47.47,0,0,1-.14.93Z" style="fill:#fff"></path></g></g><g id="freepik--Mailbox--inject-5"><g id="freepik--mailbox--inject-5"><path d="M87.75,361.72v-7.37h1.82c2.12-4.3,6.08-8.35,11.93-11.72,18.35-10.6,48.1-10.6,66.45,0,5.86,3.37,9.82,7.42,11.94,11.72h1.8v7.13c.15,7-4.42,14.13-13.74,19.51-18.35,10.59-48.1,10.59-66.45,0C92.29,375.67,87.71,368.69,87.75,361.72Z" style="fill:#263238"></path><path d="M168,335.16c-18.35-10.59-48.1-10.59-66.45,0s-18.35,27.77,0,38.37,48.1,10.59,66.45,0S186.3,345.76,168,335.16Z" style="fill:#455a64"></path><path d="M146.83,222.08v129c0,1.78-1.18,3.57-3.54,4.93-4.72,2.73-12.38,2.73-17.1,0-2.36-1.36-3.54-3.15-3.54-4.93v-129Z" style="fill:#37474f"></path><polygon points="122.64 252.58 122.64 261.32 146.83 275.26 146.83 266.58 122.64 252.58" style="fill:#263238"></polygon><path d="M260.32,138.69h0l-2.06,4.13-22.15,44.4L225.6,208.32,190,279.66l-3.92,7.86q-.35,0-.69,0a8.1,8.1,0,0,1-4-1l-141.8-82a8.83,8.83,0,0,1-4-6.91V136.51c0-30.55,20.11-66.92,44.94-81.26C92.34,48.46,103,47.91,111,52.4l0-.06Z" style="fill:#455a64"></path><path d="M230.37,141.92c-10,3.71-46.48,33.82-46.48,81.23,0,39.86.05,60.55.06,64.27a8.93,8.93,0,0,0,1.47.13q.35,0,.69,0l3.92-7.86,35.57-71.34,10.51-21.09,2.41-4.83Z" style="fill:#37474f"></path><path d="M273.36,237.45s0,0,0,0a5,5,0,0,1-1.65,1.6l-.41.26-81.88,47.27a7.74,7.74,0,0,1-3.3.93q-.35,0-.69,0v-64.4c0-11,2.62-22.72,7.12-33.93l4,2.34,29,16.76,45.07,26,2.31,1.33A1.18,1.18,0,0,1,273.36,237.45Z" style="fill:#37474f"></path><path d="M260.32,138.7c-7.94-4.17-18.44-3.44-29.95,3.22-12.91,7.43-24.56,20.87-32.74,36.33a112.31,112.31,0,0,0-5.09,11c-4.5,11.21-7.12,22.94-7.12,33.93v64.4q.35,0,.69,0a7.74,7.74,0,0,0,3.3-.93l81.88-47.27.41-.26a7.78,7.78,0,0,0,1.65-1.6s0,0,0,0a8.63,8.63,0,0,0,1.92-5V171.27C275.28,154.9,269.5,143.52,260.32,138.7ZM269.48,235l-78.25,45.18c-.66.38-1.2.07-1.2-.69V223.15c0-9.83,2.27-20.73,6.55-31.59a6.62,6.62,0,0,1,.24-.62,107.09,107.09,0,0,1,5.45-11.61c7.95-14.69,18.82-26.76,30.41-33.42,5.95-3.45,11.59-5.19,16.75-5.19a18.61,18.61,0,0,1,8.83,2.11c7.83,4.17,12.41,14.3,12.41,28.44V233A2.64,2.64,0,0,1,269.48,235Z" style="fill:#455a64"></path><path d="M351.15,304.77v-5.63h-.53v.8a24.68,24.68,0,0,0-1.47-4.56c-3-6.9-9.19-13.52-18.71-19l-52.95-30.57a8.83,8.83,0,0,0-8,0l-81,46.74a11.65,11.65,0,0,1-2.57-2.84v5.68h0a2.81,2.81,0,0,0,1.65,2.31l53,30.56c14.17,8.19,32.7,12.21,50.65,12,15.53-.2,30.63-3.6,42.14-10.25,11.9-6.84,17.77-15.92,17.77-25.19Z" style="fill:#263238"></path><path d="M349.15,295.38c-3-6.9-9.19-13.52-18.71-19l-52.95-30.57a8.83,8.83,0,0,0-8,0l-81,46.74,52,30c14.17,8.19,32.7,12.21,50.65,12,15.53-.21,30.63-3.6,42.14-10.25,10.68-6.15,16.52-14.09,17.59-22.36A23.41,23.41,0,0,0,349.15,295.38Z" style="fill:#455a64"></path><path d="M351,301.93a23.41,23.41,0,0,0-1.81-6.55c-3-6.9-9.19-13.52-18.71-19l-52.95-30.57a8.83,8.83,0,0,0-8,0l-81,46.74-.92-.52c-2.2-1.28-2.2-3.34,0-4.61l81.88-47.28a8.83,8.83,0,0,1,8,0l52.95,30.57c9.52,5.5,15.75,12.12,18.71,19a24.09,24.09,0,0,1,1.87,7A22,22,0,0,1,351,301.93Z" style="fill:#37474f"></path><path d="M270.67,171.27v63.08l-74.09-42.79a6.62,6.62,0,0,1,.24-.62c7.94-19.85,21.34-36.68,35.86-45,5.95-3.45,11.59-5.19,16.75-5.19C262.53,140.72,270.67,152.42,270.67,171.27Z" style="fill:#263238"></path><path d="M137.27,219.64l6.52-3.76h0l.05,0h0c2.23-1.26,5.3-1.07,8.69.89,6.82,3.94,12.35,13.52,12.35,21.4,0,3.93-1.38,6.7-3.6,8h0l-6.06,3.47-1.1-1.83a12.53,12.53,0,0,1-3.54-1.38c-6.82-3.94-12.36-13.52-12.36-21.4a13.18,13.18,0,0,1,.39-3.15Z" style="fill:#e0e0e0"></path><path d="M146.26,220.35c6.82,3.94,12.36,13.52,12.36,21.4s-5.54,11.07-12.36,7.13-12.36-13.52-12.36-21.4S139.43,216.41,146.26,220.35Z" style="fill:#fafafa"></path><path d="M146.26,238a3.58,3.58,0,0,1-3.58-3.58V133.14a3.58,3.58,0,0,1,7.16,0V234.43A3.58,3.58,0,0,1,146.26,238Z" style="fill:#ebebeb"></path><polygon points="142.68 143.15 106.78 122.43 118.02 144.04 106.78 152.69 142.68 173.41 142.68 143.15" style="fill:#3A98B9"></polygon></g></g><g id="freepik--Envelope--inject-5"><g id="freepik--Letter--inject-5"><path d="M330.12,236.7a4.29,4.29,0,0,0-1.95-3.37l-99.69-57.56a4.3,4.3,0,0,0-3.89,0l-2.2,1.27a4.29,4.29,0,0,0-1.95,3.38v76.41a4.34,4.34,0,0,0,1.95,3.38l99.69,57.55a4.32,4.32,0,0,0,3.9,0l2.19-1.27a4.33,4.33,0,0,0,1.95-3.37Z" style="fill:#3A98B9"></path><path d="M329.55,234.78,324,238,221,178.5a4,4,0,0,1,1.38-1.46l2.2-1.26a4.24,4.24,0,0,1,3.89,0l99.69,57.55A4,4,0,0,1,329.55,234.78Z" style="fill:#fff;opacity:0.4"></path><path d="M330.12,236.7v76.41a4.29,4.29,0,0,1-1.95,3.38L326,317.76a3.28,3.28,0,0,1-.54.24,4.06,4.06,0,0,1-.8.18,4.68,4.68,0,0,1-1.54-.05l-.38-.1-.23-.09a1.19,1.19,0,0,0,.93,0,1.36,1.36,0,0,0,.6-1.28V240.22a1.71,1.71,0,0,0-1-1.66l1-.59,5.53-3.19A4,4,0,0,1,330.12,236.7Z" style="opacity:0.1"></path><path d="M324,238l-46.16,17.25a7.5,7.5,0,0,1-8.91-2.93l-7.41-11.36-40.89-62.65,39.41,63.08-39.62,15.5a4.08,4.08,0,0,0,.61,1.95l39.12-17.27,8.61,13.78a7.51,7.51,0,0,0,9.4,2.89l6.13-2.71,39.11,62.42a1.36,1.36,0,0,0,.6-1.28v-1.28L284.5,255.42Z" style="opacity:0.2"></path></g></g><g id="freepik--Character--inject-5"><g id="freepik--character--inject-5"><path d="M434.87,333l-1.71-2.53h0s-15-25.7-18.08-30.75-14.18-12.83-14.18-12.83l1.17-47.28L376,243.4c-.21,5.64.67,27.2,4.75,38a100.07,100.07,0,0,0,8.5,17.62c1.22,2.1,37.69,37.82,37.69,37.82h0L428,338a4.56,4.56,0,0,0,5.77.92l.09-.06A4.24,4.24,0,0,0,434.87,333Z" style="fill:#ffa8a7"></path><path d="M431.89,328.27l-4.68-8s.07,3.76-2.45,6a13.9,13.9,0,0,1-5.7,2.89l6.42,6.31S431.82,335.33,431.89,328.27Z" style="fill:#f0f0f0"></path><path d="M441,339.24c-.21-1.17-1.62-2.79-2.53-3.82-1.83-2.29-6.05-9.32-6.86-10.22a.88.88,0,0,0-1.47,0l.61,1.05s.87,1.86-1.45,5c-1,1.34-4.05,2.88-5.57,2.48l-.84-.82c-.63,1.29.39,2,2.27,3.85s1.2,5.52.61,7.16a19.67,19.67,0,0,1-5.23,7.06c-4.5,4-4.67,5.44-2.67,6.74,1.7,1.1,6.69,1.63,10.43,0,3.42-1.46,4.7-3.41,5.34-6.7s2.64-4.35,4.37-5.84S441.27,341,441,339.24Z" style="fill:#263238"></path><path d="M415.4,243.53l-34.35-4.64h-2.34s-.9,7,4.78,14.9a47.48,47.48,0,0,0,6.8,7.88s-4.08,24.48-5.51,36.26c-1.16,9.51-5,43.75-6,52.19a33.92,33.92,0,0,1-.64,3.76l-1.52,6.58,7.45,1.72,2.13-5a44.66,44.66,0,0,1,2.37-7.32,266.17,266.17,0,0,0,9.91-29.48c2-7.83,1.17-16.68,1-18.78,0,0,12.34-26,15.41-41.2A43.87,43.87,0,0,0,415.4,243.53Z" style="fill:#ffa8a7"></path><path d="M378.71,351l1.07-9.45s4.34,3.18,11.59,1.24c-1.1,3-2.41,6.36-3.83,9.89,0,0-3.65,4.29-6.61,3.26S378.71,351,378.71,351Z" style="fill:#f0f0f0"></path><path d="M388.45,350.41l-.4,1s-1.83,2.41-6.61,1.26a3.15,3.15,0,0,1-2.53-3.44s-1.09,0-1.2.88a19.35,19.35,0,0,1-4.09,9.53,21.48,21.48,0,0,1-4.75,3.67c-4.27,2.63-8.22,4.29-8.71,5.85-.8,2.58,2.62,4.88,8,5.19a15.8,15.8,0,0,0,7.36-1.2,18.84,18.84,0,0,0,5.46-4.33c1.31-1.31,5.3-2.63,6.29-4.21.42-.68.64-3.37.64-4.85v-1.08a26.5,26.5,0,0,1,1.47-6.47C389.72,351,388.45,350.41,388.45,350.41Z" style="fill:#263238"></path><path d="M376,243.4s-.21,13.56,0,19.54,1.32,21.29,1.32,21.29a21.57,21.57,0,0,0,9.17,1.83l-.35,2.39a35,35,0,0,0,24.13,3.33s5.3-18.87,6.12-32.18-.92-16.07-.92-16.07Z" style="fill:#455a64"></path><path d="M386.6,284.88a37.65,37.65,0,0,0,24.67,2.83l-.3,1.18s-11.13,3.86-24.55-2.83Z" style="fill:#37474f"></path><path d="M377,280.29s5.56,2,10,1.9l-.15,1S381,283,377,281.35Z" style="fill:#37474f"></path><path d="M385.74,290.71s3.69-25.55,4.55-29c0,0-6.34-2.43-8.28-4.66,0,0,1.38,3.11,5.91,5.88Z" style="fill:#f28f8f"></path><path d="M386.07,288.45h0v0Z" style="fill:#263238"></path><path d="M382,257s1.38,3.11,5.91,5.88l-1.81,23.17h.31c1.11-7.52,3.24-21.83,3.87-24.4C390.29,261.66,384,259.23,382,257Z" style="fill:#263238"></path><path d="M399.52,301.62c1-1.37,3-6,4.18-9.06h.24l-3,9.76a45.21,45.21,0,0,1,.86,9.77l-2-1.75C399.88,308.87,399.52,301.62,399.52,301.62Z" style="fill:#f28f8f"></path><path d="M379.84,232.74c5-16.73,4-30.9,5-35.24l-12.87,18a159.73,159.73,0,0,1-2.63,17.65c-1.49,6.4-3.52,14.37-5.95,19.33a4,4,0,0,1-2.1,1.92c-2.43,1-3.55,2.24-5.5,3.68-1.53,1.13-2.69,1.28-2.59,1.74a2.15,2.15,0,0,0,2.55,1.44,15.36,15.36,0,0,0,3.41-1.15A20.23,20.23,0,0,1,355,265c-3.72,3.24-4.26,5.53,1.94,6.66,3.88.7,7.4-1.16,11.81-9.22a71.31,71.31,0,0,0,4.4-9.15C376.09,245.09,378.32,237.8,379.84,232.74Z" style="fill:#ffa8a7"></path><path d="M389.19,190c-6,0-12,1.38-14,7.79s-4.66,24.44-4.66,24.44,2.53,3.38,11,2.85Z" style="fill:#e0e0e0"></path><path d="M401.58,190.45c4.23,1,9.13,1.88,13.22,3.91,2.85,1.41-1.32,25-1.32,25l1.92,24.14c-5.64,6.1-27.19,8.88-39.44-.13,0,0,.11-32.85.13-39.09s3.52-13.74,13.1-14.27Z" style="fill:#f5f5f5"></path><path d="M385.23,198.2c.78,1.84,2.2,2.58,4.78,2.87a9.61,9.61,0,0,0,7.14-2.48l-3.21-3.2-4.07,3.07-.35-3.41Z" style="fill:#3A98B9"></path><path d="M385.23,198.2c.78,1.84,2.2,2.58,4.78,2.87a9.61,9.61,0,0,0,7.14-2.48l-3.21-3.2-4.07,3.07-.35-3.41Z" style="opacity:0.1"></path><polygon points="413.5 218.93 409.82 208.66 414.09 227.11 413.5 218.93" style="fill:#e0e0e0"></polygon><path d="M408.33,168.74l-2.69,10.48a5.06,5.06,0,0,1-4.92,3.8h-3.11l.05-14.63Z" style="fill:#263238"></path><circle cx="387" cy="164.82" r="11.24" transform="translate(220.29 551) rotate(-89.72)" style="fill:#263238"></circle><path d="M404.38,158.49a4.27,4.27,0,0,1,3.54,1.25c1.51,1.56,1.19,4.43,0,11l-4.7.52Z" style="fill:#263238"></path><path d="M402.14,171.3c.69.42,1.69-.92,2.56-1.82s3.67-2.11,5.06.84-.83,7-3,7.85a3.28,3.28,0,0,1-4.33-1.39l-.88,13.67s-5,7.12-11.71,8c-1.53-3.32-2.9-5.7-.68-8.42l0-4.18a20.74,20.74,0,0,1-5.13.25,7.4,7.4,0,0,1-5.58-5.61,42.63,42.63,0,0,1-.48-18.45c1.83-10.41,13.51-10.55,20.09-6.38S402.14,171.3,402.14,171.3Z" style="fill:#ffa8a7"></path><path d="M402.14,172.47c.35,0,1.69-2.2,2.56-3,1.2-1.08-.32-11-.32-11-.58-8.12-12.55-8.78-15.86-9-7.58-.57-12.75,3.61-10.71,8.91,1.37,2.4,4.16,3.07,6.79,3.4,4.46.56,12.06-1.81,13-1.94,1.3-.17,1.57,1.09,2.26,4.51C400.47,167.35,401,172.44,402.14,172.47Z" style="fill:#263238"></path><path d="M404.38,159.26,408.6,157a2.33,2.33,0,0,0-3.19-1.07A2.51,2.51,0,0,0,404.38,159.26Z" style="fill:#263238"></path><path d="M389.22,185.86s6.25-1.23,8.44-2.39a7.18,7.18,0,0,0,3-3A9.67,9.67,0,0,1,399,184c-1.6,2-9.75,3.52-9.75,3.52Z" style="fill:#f28f8f"></path><path d="M389.07,171a1.27,1.27,0,0,0,1.25,1.3,1.29,1.29,0,0,0,1.26-1.3,1.26,1.26,0,1,0-2.51,0Z" style="fill:#263238"></path><path d="M390.41,166.3l2.68,1.49a1.6,1.6,0,0,0-.62-2.13A1.5,1.5,0,0,0,390.41,166.3Z" style="fill:#263238"></path><path d="M389.81,179.4,387,180.46a1.49,1.49,0,0,0,1.93,1A1.61,1.61,0,0,0,389.81,179.4Z" style="fill:#f28f8f"></path><path d="M378.57,167.31l2.45-1.88a1.48,1.48,0,0,0-2.12-.33A1.62,1.62,0,0,0,378.57,167.31Z" style="fill:#263238"></path><path d="M379.29,170.31a1.2,1.2,0,1,0,2.4,0,1.21,1.21,0,0,0-1.19-1.25A1.24,1.24,0,0,0,379.29,170.31Z" style="fill:#263238"></path><polygon points="384.56 170.5 385.71 177.96 381.59 177.46 384.56 170.5" style="fill:#f28f8f"></polygon><path d="M387.26,197.2a19,19,0,0,0,.05,3.48,5.89,5.89,0,0,0,1.15,2.86,3.11,3.11,0,0,0,2.77.3,7.36,7.36,0,0,0,2.16-5.78l-3.52.4Z" style="fill:#3A98B9"></path><path d="M388.46,203.54s-4.16,15.4-4.32,17.26,3.46,11.78,5.05,11.83,4.49-6.7,4.54-8.4-2.5-20.39-2.5-20.39Z" style="fill:#3A98B9"></path><path d="M391.23,203.84a2.77,2.77,0,0,1-2.77-.3l-.08.27a3.22,3.22,0,0,0,2.93.63Z" style="opacity:0.1"></path><path d="M389.87,198.46l11.76-8.87.17-2.63s2.55,1,3.17,5.8a20.51,20.51,0,0,1-9.11,9.7l-2.47-4.4Z" style="fill:#e0e0e0"></path><path d="M389.2,188.07a5.92,5.92,0,0,0-3.85,2.32c-1.18,2-.91,9.37-.91,9.37l2.82-2.56,2.61,1.26c-.25-2.47-.68-6.64-.68-6.64Z" style="fill:#e0e0e0"></path><path d="M399.62,162.62s-8.54,6.44-18.6,4.37c-10.66-2.2-3.42-8.61-3.42-8.61Z" style="fill:#37474f"></path><path d="M372.53,150.54c2.86-3.56,14.84-8,25.08-5.59s13,7.76,13,7.76a23.6,23.6,0,0,1-13.74,3.47C388.71,155.73,372.53,150.54,372.53,150.54Z" style="fill:#3A98B9"></path><path d="M372.53,150.54c2.86-3.56,14.84-8,25.08-5.59s13,7.76,13,7.76a23.6,23.6,0,0,1-13.74,3.47C388.71,155.73,372.53,150.54,372.53,150.54Z" style="fill:#fff;opacity:0.4"></path><path d="M409.29,155.93a11.43,11.43,0,0,0,1.29-3.22s-1.21,1.17-8.15.11c-6.58-1-13.43-4.83-20.74-5.14s-9.16,2.86-9.16,2.86a16.51,16.51,0,0,0,4.37,6.37s3.25,4.4,11.81,4.62S409.29,155.93,409.29,155.93Z" style="fill:#3A98B9"></path><path d="M385.37,154.36c0,2-1.36,3.39-3,3.13a4.09,4.09,0,0,1-3-4.1c0-2,1.36-3.39,3-3.12A4.08,4.08,0,0,1,385.37,154.36Z" style="fill:#f5f5f5"></path><path d="M409.29,155.93l-.09,1.37a3,3,0,0,1-1.37,2.26,34.14,34.14,0,0,1-18.9,3.84c-6.08-.45-9.05-1.64-10.35-2.63a3.19,3.19,0,0,1-1.58-2.55l-.1-1.31s2.37,2.26,12.33,3.09S409.29,155.93,409.29,155.93Z" style="fill:#455a64"></path><path d="M385.42,190.27s-4.79,3.57-1.88,18.62c3.65,18.79,14.63,38.44,14.63,38.44s-4.8,2.16-5.54,1.4-7.51-16.13-10.36-24.93-7-23-1.66-32.21C380.61,191.59,383.12,189.61,385.42,190.27Z" style="fill:#3A98B9"></path><path d="M385.42,190.27s-4.79,3.57-1.88,18.62c3.65,18.79,14.63,38.44,14.63,38.44s-4.8,2.16-5.54,1.4-7.51-16.13-10.36-24.93-7-23-1.66-32.21C380.61,191.59,383.12,189.61,385.42,190.27Z" style="opacity:0.1"></path><path d="M422.16,239.22s-28.39,7.62-29.41,9.14,1.08,23.57,4.6,26.25a15.68,15.68,0,0,0,7.86,2.58c10.59-.14,26.35-5.76,26.83-9.77C433.61,254.24,422.16,239.22,422.16,239.22Z" style="fill:#3A98B9"></path><path d="M422.16,239.22s-28.39,7.62-29.41,9.14,1.08,23.57,4.6,26.25a15.68,15.68,0,0,0,7.86,2.58c10.59-.14,26.35-5.76,26.83-9.77C433.61,254.24,422.16,239.22,422.16,239.22Z" style="opacity:0.1"></path><path d="M422.16,239.22c2.9.79,7.53,9.5,7.54,11.34,0,3.91-4.46,8.16-17.91,11-9.57,2-12.74.36-14.07-2.46-2-4.26-3.21-9.46-5-10.74C394.7,246,419.48,238.49,422.16,239.22Z" style="fill:#3A98B9"></path><path d="M430.51,231.74c-.46-7.09-3.5-15.88-5.26-20.23l-11.74,4.42s4.33,10.51,5.35,15.3c0,5.51-2.27,15.07-4.48,20.13a4,4,0,0,1-2,2c-2.38,1.1-3.45,2.4-5.33,3.93-1.48,1.2-2.63,1.4-2.51,1.85a2.15,2.15,0,0,0,2.62,1.32,14.93,14.93,0,0,0,3.34-1.3,19.92,19.92,0,0,1-3.91,5.1c-3.57,3.4-4,5.72,2.23,6.57,3.91.53,7.35-1.48,11.39-9.73,1.17-2.38,3.36-6.44,4.55-9.57C428.7,241.21,430.18,236.34,430.51,231.74Z" style="fill:#ffa8a7"></path><path d="M411.72,193.17c4.76.23,7.93,2.16,11.07,8.4s6.72,19,6.72,19a19.63,19.63,0,0,1-13.71,4.65s-6.11-16.32-7.15-20.19C407.53,200.79,408.54,194.61,411.72,193.17Z" style="fill:#f5f5f5"></path></g></g></svg>