<svg width="720" height="580" viewBox="0 0 1920 1080" xmlns="http://www.w3.org/2000/svg"><path d="M1440,556.9999999999999C1412.3348299291083,615.8231498713519,1274.3593351137579,737.2512702714964,1245.4641911185945,791.1254274196958C1216.5690471234311,844.9995845678952,1302.3215167821443,841.8126819017912,1266.6291360290202,880.244942889196C1230.936755275896,918.6772038766007,1098.0139987552939,1003.8002656242509,1031.3099065998497,1021.7189933441243C964.6058144444054,1039.6377210639978,930.5945403091619,1012.1429420643977,866.4045830963544,987.7573092084367C802.2146258835469,963.3716763524757,686.9370784975868,932.0741770087997,646.1701633230045,875.405196208358C605.4032481484223,818.7362154079163,633.6520889096489,706.6725208593452,621.8030920488609,647.7434244057866C609.9540951880729,588.814327952228,543.1458643905662,587.0220542560302,575.0761821582765,521.8306174870061C607.0064999259869,456.639180717982,768.4930622096923,315.5261249075494,813.3849986551227,256.5948037916423C858.276935100553,197.66348267573517,803.7850495875634,191.29499031419112,844.4278008308588,168.24269079156335C885.0705520741542,145.19039126893557,994.0412835818681,102.23593345728779,1057.241506114895,118.28100665587567C1120.4417286479218,134.32607985446356,1164.5935184575117,211.19554306047263,1223.62913602902,264.51312998309066C1282.6647536005282,317.8307169057087,1375.3934008821143,389.438716522099,1411.4552115439442,438.1865281915839C1447.517022205774,486.93433986106874,1467.6651700708917,498.1768501286479,1440,556.9999999999999C1412.3348299291083,615.8231498713519,1274.3593351137579,737.2512702714964,1245.4641911185945,791.1254274196958" fill="#ff7360"/></svg>